<?xml version="1.0" encoding="UTF-8" standalone="no"?>
<svg width="581px" height="463px" viewBox="0 0 581 463" version="1.1" xmlns="http://www.w3.org/2000/svg" xmlns:xlink="http://www.w3.org/1999/xlink" xmlns:sketch="http://www.bohemiancoding.com/sketch/ns">
    <!-- Generator: Sketch 3.4.1 (15681) - http://www.bohemiancoding.com/sketch -->
    <title>paris-outline</title>
    <desc>Created with Sketch.</desc>
    <defs></defs>
    <g id="Page-1" stroke="none" stroke-width="1" fill="none" fill-rule="evenodd" sketch:type="MSPage">
        <g id="Desktop-HD" sketch:type="MSArtboardGroup" transform="translate(-411.000000, -264.000000)" stroke="#414951">
            <g id="Path-3" sketch:type="MSLayerGroup" transform="translate(411.000000, 264.000000)">
                <path d="M513.514902,34.5092811 C513.514902,34.5092811 516.962427,4.74299471 463.29997,0.653982758 C427.731657,0.653982748 359.261314,2.44942097 359.261314,2.44942097 C359.261314,2.44942097 282.820803,5.39522977 246.811693,5.39522976 C210.928015,21.894626 154.86777,64.3422303 154.86777,64.3422303 C154.86777,64.3422303 143.330517,65.2244636 128.873748,77.9453648 C114.416979,90.666266 108.57575,100.155238 106.298661,108.814778 C104.021573,117.474317 95.6590432,135.402822 95.6590432,135.402822 L60.4972616,200.087564 L51.650714,209.310326 L22.9879878,287.338592 C22.9879878,287.338592 11.9589549,291.985172 1.60974779,291.985175 C0.0124850255,293.769445 5.80971281,302.404784 5.80971281,302.404784 C5.80971281,302.404784 -3.17104006,318.302609 5.48850019,337.232153 C14.1480404,356.161697 17.5273732,360.220856 17.5273732,360.220856 C17.5273732,360.220856 35.0664625,366.112688 58.2047715,359.776439 C64.4090153,365.017044 67.7883481,367.269933 67.7883481,367.269933 L59.5732253,379.253804 L61.9207175,394.154989 L75.0618339,395.305635 L100.299025,371.925316 C100.299025,371.925316 128.229138,401.985087 285.964321,445.040789 C290.78471,452.800494 294.84387,455.805812 294.84387,455.805812 L341.028084,461.695443 L359.167797,445.386202 L376.04246,458.714326 L401.902276,459.372152 L528.422311,390.875627 C528.422311,390.875627 522.048461,378.950936 542.752434,373.110432 C558.771511,359.611794 558.283014,355.262088 558.283014,355.262088 L570.698123,361.415077 C570.698123,361.415077 584.21496,303.522937 579.226041,241.522744 C574.237121,179.522551 558.171283,117.179368 558.171283,117.179368 L528.248219,98.5281217 L513.514902,34.5092811 Z" sketch:type="MSShapeGroup"></path>
            </g>
        </g>
    </g>
</svg>